<svg xmlns="http://www.w3.org/2000/svg" width="351" height="292" fill="none"><g class="avatar_three"><path fill="#4fd1c5" d="M159.417 159.736H21.127a7.396 7.396 0 0 0-7.395 7.396V279.54a7.396 7.396 0 0 0 7.396 7.396h138.289a7.396 7.396 0 0 0 7.396-7.396V167.132a7.396 7.396 0 0 0-7.396-7.396Z"/><path fill="#000" d="M34.024 229.399c.39.566.835 1.092 1.33 1.57a9.998 9.998 0 0 0 2.28 1.67 14.617 14.617 0 0 1 5.348-3.71l.048-.085c.434-.746 1.775-1.606 3.485-2.409 4.016 5.746 13.764 5.501 17.005-1.264-.029.056-.049.116-.077.172a68.174 68.174 0 0 1 9.48 7.36l19.96.349c-1.486-3.585-5.24-8.335-5.24-8.339a15.627 15.627 0 0 1-.157-1.867 14.527 14.527 0 0 1 7.882 1.361l10.708 5.139c1.068-2.573.53-5.436-.345-7.99-2.915-8.48 4.416-11.146.534-17.144-3.562-5.513 5.902-13.287.128-18.936a10.309 10.309 0 0 1-.425-.446 9.146 9.146 0 0 0 1.684-8.328 9.148 9.148 0 0 0-5.888-6.126 16.503 16.503 0 0 0-3.052-4.959c-3.866-4.441-9.889-4.641-14.454-3.951-2.036-2.031-5.706-5.464-12.118-4.513-9.853 1.458-2.947 9.171-17.743 11.773-12.49 2.196-6.492 15.619-10.527 16.562-4.502 1.052-7.372 8.834-4.819 12.539a9.158 9.158 0 0 0-1.481 10.934 7.724 7.724 0 0 0-1.835 7.416 10.035 10.035 0 0 0-1.823 13.053l.112.169Z"/><path fill="#A87858" d="M97.134 184.252v-.052a.226.226 0 0 1 0 .052Z" opacity=".3"/><path fill="#C76C61" d="M33.908 265.607c-.53 8.368-1.028 16.92-1.205 21.329 0 0 4.758.028 5.328.072h15.555s1.944-9.367 3.803-19.337l-23.481-2.064ZM190.844 188.408a.863.863 0 0 0-.94.197l-7.271 7.327a13.92 13.92 0 0 0-.502-1.032l1.405-2.148s2.847-4.212 5.493-7.504a5.366 5.366 0 0 0 1.116-2.008c.402-1.678-1.164-2.192-1.762-2.103-.803.112-2.373 2.706-3.57 3.962-.847.888-3.529 4.457-5.127 6.477a10.048 10.048 0 0 0-.606-.574l3.702-5.34 3.344-4.666c1.413-1.606 1.542-2.526 1.205-3.035a1.2 1.2 0 0 0-.522-.426 2.081 2.081 0 0 0-1.988.197c-4.878 3.264-9.05 10.977-9.05 10.977l-.044.068-.558-.265 1.835-3.682 3.212-4.85c.803-1.144 1.124-1.931 1.128-2.473a1.027 1.027 0 0 0-.771-1.036 2.053 2.053 0 0 0-1.959.381c-3.65 2.988-6.774 8.806-7.858 10.974-.586.69-1.682 1.979-2.714 3.156-.048.048-.1.096-.145.148-1.325 1.325-1.75 2.381-2.694 2.478a2.087 2.087 0 0 1-.891-.145c-2.309-2.072-2.317-11.198-7.187-9.327a1.274 1.274 0 0 0-.534 1.51c.658 1.923 2.308 7.102 2.409 10.812.076 3.144.172 6.826.779 8.705.325 1.016 2.308 4.445 2.196 5.505l-.028.1-20.252 37.096s-13.038-5.42-25.296-11.242l-7.295 15.209c.6 2.49.652 5.081.152 7.593 11.769 4.794 30.258 11.531 39.224 10.576 4.116-.438 7.858-5.798 11.07-13.025 6.537-14.684 10.877-37.064 11.692-41.461 1.397-2.264 3.035-4.095 4.601-5.998 1.233-.908 6.678-7.32 7.746-9.332 2.14-1.919 6.079-5.641 7.476-8.195 1.337-2.457.458-3.292-.221-3.581ZM97.034 190.48a6.82 6.82 0 0 1-.277-1.755l-.1-3.3v-.197a6.828 6.828 0 0 0-1.458 0c-.927.116-3.003 1.036-4.332 1.658a.395.395 0 0 1-.14.077.385.385 0 0 1-.157.018.397.397 0 0 1-.354-.282.41.41 0 0 1 .125-.435c1.265-1.538 3.585-2.224 5.039-2.305.375-.012.75.041 1.108.157v-.048a6.172 6.172 0 0 0-.096-.366 6.288 6.288 0 0 0-.342-.931l-.45-1-1.646-3.256c-12.045 1.164-17.478-4.292-17.666-4.525.646 2.73 2.052 6.52-3.212 10.218-9.352 6.589-1.94 9.958-10.15 12.479a4.452 4.452 0 0 0-8.115 3.212h-.024l.132.442.61 2.092a7.183 7.183 0 0 0 3.445 4.31 7.195 7.195 0 0 0 5.485.6l1.096-.321.245.325a7.346 7.346 0 0 1-1.81 9.99c.46 1.413.631 2.904.505 4.385a10.77 10.77 0 0 1-1.052 3.613 69.499 69.499 0 0 1 12.283 10.114c11.547 11.909 19.2 3.188 17.457-1.606a10.952 10.952 0 0 0-.212-.558c-1.418-3.613-5.328-8.556-5.328-8.56-.306-1.827-.165-6.211-.065-8.432.566-.007 1.13-.053 1.69-.136a7.02 7.02 0 0 0 5.658-4.871l1.494-4.151c.361-1.173.642-2.37.839-3.582l.43-2.626.196-1.204a18.07 18.07 0 0 0-.506-8.063l-.345-1.18Zm-12.082-3.369a86.52 86.52 0 0 1-2.501.161l-1.606.084-.803.04c-.246.003-.491.019-.735.048-.975.143-1.88.59-2.586 1.277a16.255 16.255 0 0 1-2.634 1.968 16.197 16.197 0 0 1 1.976-2.63 5.791 5.791 0 0 1 2.98-1.891 13.666 13.666 0 0 1 1.681-.269l1.606-.209c.751-.101 1.502-.185 2.253-.265a.965.965 0 0 1 .96.515c.06.114.097.24.108.368a.74.74 0 0 1-.699.803Z"/><path fill="#000" d="m83.286 204.589 9.383-1.261s-1.011 1.51-.622 2.614c0 0-5.015 1.803-8.76-1.353Z"/><path fill="#ED1C24" d="M92.216 204.834s.803 2.092-.213 3.051c-.803.743-3.272.992-5.1.35-1.826-.643-3.613-3.646-3.613-3.646s2.297 1.522 4.04 1.771c2.216.313 3.934-.153 4.416-.635l.18-.891h.29Z"/><path fill="#fff" d="M83.286 204.589s1.831.803 2.775.803a32.98 32.98 0 0 0 5.685-.373 1.023 1.023 0 0 0 .827-.872l.097-.835-9.384 1.277Z"/><path fill="#ED1C24" d="M93.12 202.983a.669.669 0 0 0-1.008-.598 4.46 4.46 0 0 1-2.811.453c-1.124-.168-1.658.041-6.023 1.751 0 0 7.019.775 9.396-.506.144-.08.34-.634.34-.634a2.3 2.3 0 0 0 .105-.466Z"/><path fill="#fff" d="M63.76 224.629c.06-.153.117-.314.173-.47-.056.156-.092.317-.172.47Z"/><path fill="#955149" d="M86.534 200.919s-.714.313-.803-.108c-.088-.422 1.514-1.305 2.245-1.791.73-.486 1.16-.165 2.349-.165 1.188 0 1.45-.855 2.08-.855.63 0 .068 1.546-.518 1.835-.587.289-.583.61-1.317.735-1.835.317-1.815-.157-4.036.349ZM87.578 216.261a12.44 12.44 0 0 1-4.569-.803l-13.688-5.545a7.478 7.478 0 0 1-1.24-.586c2.445 4.818 8.472 13.981 19.562 15.366-.306-1.811-.165-6.195-.065-8.432ZM56.955 200.385c-1.285-5.111 3.581-3.003 3.581-3.003l-2.81 2.353c1.168 4.585 5.083 5.412 5.083 5.412-4.425.843-5.854-4.762-5.854-4.762ZM33.848 265.603l-.582 8.609c5.741 4.89 23.328-2.409 23.328-2.409l.87-4.136-23.616-2.064ZM141.695 247.864l.694 3.903s9.661-21.77 14.487-31.776l-15.181 27.873ZM165.203 193.596c3.212 2.264 4.842 6.556 5.083 8.496a38.492 38.492 0 0 0-1.329-6.099 18.754 18.754 0 0 1-.694-5.172c-.125.096-.245.197-.366.297-1.325 1.325-1.75 2.381-2.694 2.478Z"/><path fill="#955149" d="M159.341 257.34a32.399 32.399 0 0 1-4.131 6.063 13.443 13.443 0 0 1-14.483 3.786l-27.138-8.938 2.533-20.878-.112.052-6.906 14.398c.6 2.49.652 5.081.152 7.593 11.769 4.794 30.258 11.531 39.224 10.576 4.116-.438 7.858-5.798 11.07-13.025-.064.116-.149.241-.209.373Z"/><path fill="#00E7E7" d="m117.311 234.715-21.943-10.508a14.522 14.522 0 0 0-7.882-1.345c.015.625.067 1.248.157 1.867 0 0 3.91 4.955 5.328 8.56.076.185.148.374.213.558 1.742 4.79-5.91 13.511-17.458 1.606a69.519 69.519 0 0 0-12.287-10.114c.029-.056.049-.116.077-.172-3.24 6.765-12.997 7.01-17.005 1.264-1.71.803-3.051 1.647-3.485 2.409l-.048.085a14.579 14.579 0 0 0-9.118 12.262l-2.14 24.227 6.593.583 19.051 1.674c-1.859 9.97-3.802 19.337-3.802 19.337h-.77l53.826.036-1.261-12.595c-.341-3.5.387-7.021 2.088-10.099.041-.068.077-.14.113-.208a17.494 17.494 0 0 0 1.534-12.327l8.219-17.1ZM63.72 224.717l.133-.325-.133.325Z"/><path fill="#fff" d="M99.748 240.243a4.123 4.123 0 0 0-1.762-2.722 4.191 4.191 0 0 0 1.011-1.662c-1.485-1.883-2.983-3.718-4.416-5.356a92.18 92.18 0 0 0-2.076-2.289l-.112-.116c-.153-.157-.31-.31-.47-.462l-.177-.157-.325-.289-.157-.124a8.1 8.1 0 0 0-.377-.301l-.112-.085c-.15-.108-.298-.216-.45-.321l-.065-.044a13.467 13.467 0 0 0-2-1.116c-.111-.052-.22-.105-.336-.153.891 1.169 3.874 5.176 5.07 8.227.077.185.15.374.214.558 1.742 4.79-5.91 13.511-17.458 1.606a69.493 69.493 0 0 0-12.31-10.098c.048-.1.088-.205.136-.305a9.122 9.122 0 0 1-3.806 4.168 4.13 4.13 0 0 0 4.565 2.862 4.127 4.127 0 0 0 1.794-.734 4.138 4.138 0 0 0 4.473 5.798 4.04 4.04 0 0 0 1.205-.402 4.137 4.137 0 0 0 5.465 5.698 4.131 4.131 0 0 0 .667 4.699 4.14 4.14 0 0 0 4.644.977 4.125 4.125 0 0 0 2.257-2.376 4.133 4.133 0 0 0 4.848 3.108 4.137 4.137 0 0 0 3.255-4.75 4.14 4.14 0 0 0 6.793-3.83l.012-.009Z"/><path fill="#00ADAD" d="m53.578 286.988 15.559-.052s-7.019-2.775-5.477-24.469c.257-3.657-.498-7.689-1.421-11.041l-1.454 16.546-3.409-.301a1072.207 1072.207 0 0 1-3.798 19.317Z"/><path fill="#000" d="M85.374 190.395a3.456 3.456 0 0 0-2.228-.803 6.667 6.667 0 0 0-2.357.402 9.545 9.545 0 0 0-2.1 1.056 8.047 8.047 0 0 0-1.75 1.534c1.244-.494 2.408-1.028 3.585-1.478a1.494 1.494 0 1 0 2.084-.654c.192-.045.401-.081.578-.113a5.695 5.695 0 0 1 2.188.056ZM95.063 189.239c.24-.052.49-.1.738-.14.502-.105 1.02-.145 1.582-.257a3.84 3.84 0 0 0-1.606-.49 4.818 4.818 0 0 0-1.69.148c-.55.144-1.071.38-1.542.699-.478.306-.88.718-1.172 1.204.534-.192 1.02-.377 1.51-.542.164-.06.325-.108.49-.164a1.36 1.36 0 0 0-.218.923 1.33 1.33 0 0 0 .798 1.04 1.333 1.333 0 0 0 1.113-2.421h-.003ZM86.936 200.59s1.112-1.249 1.963-1.1c1.285.225.037.931-1.963 1.1ZM90.85 199.996s.66-.968 1.141-1.044c.482-.077.052.883-1.14 1.044Z"/></g><g class="avatar_one"><path fill="#4fd1c5" d="M182.625 7.855H11.696a7.633 7.633 0 0 0-7.633 7.633v108.738a7.633 7.633 0 0 0 7.633 7.633h170.929a7.634 7.634 0 0 0 7.633-7.633V15.488a7.633 7.633 0 0 0-7.633-7.633Z"/><path fill="#237574" d="M4.063 15.488V26.73h186.195V15.488a7.628 7.628 0 0 0-7.629-7.629H11.692a7.629 7.629 0 0 0-7.629 7.629Z"/><path fill="#E01E5A" d="M19.132 21.655a3.814 3.814 0 1 0 0-7.629 3.814 3.814 0 0 0 0 7.629Z"/><path fill="#ECB22E" d="M30.96 21.655a3.814 3.814 0 1 0 0-7.629 3.814 3.814 0 0 0 0 7.629Z"/><path fill="#2EB67D" d="M42.79 21.655a3.814 3.814 0 1 0 0-7.629 3.814 3.814 0 0 0 0 7.629Z"/><path fill="#FFA100" d="M164.123 124.631a34.655 34.655 0 0 0-.843-5.047c-.201-.847-.402-1.778-.655-2.774-2.055-8.657-5.412-22.128-7.668-27.917-2.566-6.581-5.802-12.773-11.452-17.21a27.846 27.846 0 0 0-6.801-3.914.695.695 0 0 0-.121-.036c-.706-.402-1.373-.76-2.007-1.108l-.402-.233a99.654 99.654 0 0 1-4.75-2.851c-1.048-.67-1.55-1.028-1.606-1.08 0 0-3.449-.261-8.03-.53l-.313-.02-.908-.052c-1.441-.08-2.963-.157-4.505-.225l-.779-.036h-.176c-5.18-.225-10.468-.338-13.523-.077-1.514.129-3.036.27-4.493.402-.984.096-1.94.193-2.847.289-4.417.466-7.765.88-7.765.88l-.036.02c-.47.038-.933.138-1.378.296-6.4 2.193-18.69 15.66-28.017 26.545a929.425 929.425 0 0 0-3.28 3.85c-2.522 2.987-4.686 5.585-6.26 7.432 0 0 5.978-2.389 22.713 7.794-2.995 12.659-5.027 22.97-5.027 22.97h83.917l-.803-6.826 17.815-.542Z"/><path fill="#F2606A" d="M83.03 63.372a5.426 5.426 0 0 1 1.376-.297l.036-.02s3.345-.401 7.766-.88c.907-.095 1.863-.192 2.847-.288 1.457-.145 2.979-.285 4.492-.402 3.056-.26 8.344-.148 13.523.077h.177l.783.032c1.542.068 3.064.144 4.505.224l.908.053.313.02c4.593.269 8.03.53 8.03.53.072.052.598.425 1.606 1.08 1.008.654 2.618 1.638 4.75 2.85l.401.233c.619.35 1.285.72 2.008 1.109.041.008.082.02.121.036a28.233 28.233 0 0 1 4.223 2.128c1.257-.137 5.365-1.293 6.425-10.636 1.377-12.046 4.368-29.343 4.746-33.856.317-3.798-2.381-6.753-2.381-6.753s-3.341-7.336-5.425-9.424c-3.164-3.164-19.096-12.282-35.542 1.305-7.135 5.934-31.571 46.355-34.353 58.882 3.364-3.011 6.388-5.224 8.664-6.003Z"/><path fill="#B1B1B1" d="m81.536 126.936 46.21 1.735 17.39-34.009c.951-2.53-1.582-4.111-5.3-4.212l-37.165-2.585c-1.521-.105-2.907.594-3.505 1.774l-2.164 4.578-.458.971-.983 2.1-14.025 29.648Z"/><path fill="#696969" d="M95.56 97.288c.51.743 1.478 1.606 3.297 1.952l.185-.928c-2.028-.401-2.743-1.49-2.988-2.072l-.493 1.048ZM96.544 95.188a5.22 5.22 0 0 0 3.052 1.635l.184-.928c-1.606-.33-2.409-1.088-2.778-1.678l-.458.971Z"/><path fill="#E6E6E6" d="m130.091 129.622-46.21-1.734 17.63-37.297c.598-1.184 1.987-1.883 3.505-1.775l37.164 2.586c2.064.145 3.441 2.309 2.65 4.136l-14.739 34.084Z"/><path fill="#464145" d="M140.406 98.743c.326-.716.075-1.531-.561-1.82-.635-.29-1.415.056-1.741.773-.326.716-.075 1.532.56 1.82.636.29 1.416-.056 1.742-.773Z"/><path fill="#1D1C1D" d="M139.748 98.444c.14-.307.032-.656-.24-.78-.273-.124-.607.024-.746.331-.14.307-.032.656.24.78.273.124.607-.024.746-.33ZM45.468 101.199a40.338 40.338 0 0 0 18.003 10.407l4.461-6.926s-11.72-11.708-22.465-3.481Z"/><path fill="#E69E6C" d="M143.056 32.175a.745.745 0 0 1-.402-.506c-.044-.173.928-1.205 1.421-.964.691.366 3.718 2.048 3.815 2.1l.205-9.532-6.36 4.116-5.939-1.18 5.931-5.22c-3.405.935-6.971 3.14-10.396 5.464l.378.028c.582.086 1.158.206 1.726.357l1.639.402c.762.18 1.517.373 2.276.57a1.007 1.007 0 0 1 .738.85 1.01 1.01 0 0 1-.031.395.776.776 0 0 1-.366.463.76.76 0 0 1-.586.067c-.827-.246-1.651-.5-2.473-.763l-1.606-.514-.803-.257a5.239 5.239 0 0 0-.727-.22 4.688 4.688 0 0 0-2.188.023c-6.159 4.276-11.644 8.203-14.652 4.742l.077-.538h-.024a4.592 4.592 0 0 0-3.97-4.69 4.59 4.59 0 0 0-5.076 3.462h-.025l-.401 2.907a7.192 7.192 0 0 0 6.155 8.094l.747.1a74.922 74.922 0 0 1-3.433 11.48c-1.546 3.77-1.674 6.866-5.657 7.729 0 0 3.798 7.91 8.227 12.338 5.621 5.622 10.756 8.862 16.771 8.545 7.906-.402 7.043-11.431 1.686-18.39v-2.65a7.038 7.038 0 0 0 4.417-2.083l2.811-2.88a26.671 26.671 0 0 0 2.409-2.81l2.312-3.112c.145-.192.281-.401.402-.586a18.165 18.165 0 0 0 2.847-6.826l.225-1.204a6.974 6.974 0 0 1 .594-1.707l1.433-2.983a7.008 7.008 0 0 0 .655-2.377c-.049-.024-4.007-1.859-4.782-2.24ZM164.44 131.979l-1.361-8.801-17.47 1.277.972 7.524h17.859ZM42.388 131.979h101.985s-10.669-6.545-13.881-7.159a2.082 2.082 0 0 0-.401-.048c-1.498 0-6.862.51-11.05.939-3.517.358-7.071 1.141-10.367-.144 0 0-19.225-4.75-33.145-8.865l2.847-7.276s-5.128-7.42-12.343-10.126a51.304 51.304 0 0 0-10.757-2.53s-3.256 4.015-4.753 6.32c-.093.145-.181.277-.257.402-3.212 5.243-8.717 14.723-9.388 18.738a15.258 15.258 0 0 0 1.51 9.749Z"/><path fill="#B54850" d="m148.095 23.313-.205 9.492-.02.871v.462c0 .092 0 .185-.024.277a7.008 7.008 0 0 1-.655 2.377l-1.441 2.983a6.98 6.98 0 0 0-.558 1.695l-.225 1.204a18.133 18.133 0 0 1-2.847 6.826c-.132.197-.269.401-.401.586l-2.313 3.112a26.681 26.681 0 0 1-2.409 2.81l-2.811 2.88a7.038 7.038 0 0 1-4.416 2.083v2.63c.04.052.076.109.12.165a112.08 112.08 0 0 0 4.312 2.574l.402.232c.618.35 1.285.72 2.007 1.109a.67.67 0 0 1 .121.036c.522.209 1.024.433 1.518.666 3.328-2.409 5.055-7.512 5.974-12.655 1.582-8.862 5.533-17.53 5.694-23.73.104-5.336-1.402-8.034-1.823-8.685ZM103.053 61.124c3.983-.863 4.111-3.96 5.657-7.73a75.098 75.098 0 0 0 3.433-11.475l-.747-.1a7.175 7.175 0 0 1-6.195-7.629s-4.666 19.357-19.538 24.091c-6.099 1.947-9.106 7.517-10.227 10.167 2.94-2.53 5.573-4.369 7.605-5.068a5.427 5.427 0 0 1 1.377-.297l.036-.02s3.345-.401 7.766-.88c.907-.096 1.863-.192 2.847-.288 1.457-.145 2.979-.285 4.493-.402.991-.084 2.22-.128 3.613-.144l-.12-.225Z"/><path fill="#fff" d="M45.468 101.199s7.91-3.164 31.008 13.29l.025-.044 3.3-5.473-.104-.148c-1.109-1.518-10.781-14.105-27.97-15.037-2.521 2.967-4.685 5.549-6.26 7.412Z"/><path fill="#AD7751" d="M126.903 60.626a16.539 16.539 0 0 1-5.557-3.184l-2.361-2.044a16.63 16.63 0 0 1-4.493-6.251c-.325 3.332-.325 7.347.903 10.415 2.53 6.328 14.399 9.54 14.399 9.54v-8.139a6.992 6.992 0 0 1-2.891-.337ZM107.477 33.086c.269-5.26 4.305-1.815 4.305-1.815l-3.373 1.414c-.229 4.73 3.272 6.669 3.272 6.669-4.477-.502-4.204-6.268-4.204-6.268ZM51.663 101.512l-1.028 1.63-.112-.052c-.093.145-.181.277-.257.402-3.212 5.243-8.717 14.723-9.388 18.738a15.258 15.258 0 0 0 1.51 9.741h5.22c-1.378-1.12-3.32-3.381-3.875-7.464-.715-5.264 5.734-15.29 8.215-18.915a65.492 65.492 0 0 1 24.52 8.889c-12.069-8.596-19.99-11.833-24.805-12.969Z"/><path fill="#AD7751" d="m75.529 116.701-12.343-1.473 12.973.209-.63 1.264Z"/><path fill="#F2606A" d="m143.553 19.354-7.769 6.854 5.939 1.18 8.58-5.536-6.75-2.498Z"/><path fill="#000" d="M108.276 53.37a6.963 6.963 0 0 0 3.385-13.057.316.316 0 0 0-.429.125.306.306 0 0 0-.03.24.306.306 0 0 0 .15.19 6.331 6.331 0 0 1 2.902 7.596 6.33 6.33 0 0 1-10.758 2.081 6.324 6.324 0 0 1-.14-8.13 6.324 6.324 0 0 1 3.708-2.23.32.32 0 0 0 .248-.246.314.314 0 0 0-.246-.371.316.316 0 0 0-.123-.002 6.956 6.956 0 0 0-5.616 7.504 6.96 6.96 0 0 0 6.949 6.289v.012ZM137.27 49.998s-1.02 1.277-1.04 1.931c-.032 1.177-2.465.771-4.34-.434-1.876-1.204-3.686-3.52-3.686-3.52s.783-.033 3.111.469c2.329.502 5.955 1.554 5.955 1.554Z"/><path fill="#921D21" d="M136.23 51.93s-.105 2.12-1.951 1.967c-1.482-.12-2.783-.318-4.357-2.663-1.514-2.26-1.718-3.26-1.718-3.26s4.525 3.542 6.291 3.951c1.398.321 1.735.004 1.735.004Z"/><path fill="#fff" d="M128.204 47.974s4.46 2.871 7.227 3.26a1.222 1.222 0 0 0 1.204-.493l.446-.639s-4.549-1.734-8.877-2.128Z"/><path fill="#921D21" d="M128.047 47.942s4.232-.441 5.384-.28c.956.136 2.132.332 2.694.746.208.166.462.263.727.277.339.003.677.05 1.004.14.185.06.345.771.072 1.072a2.04 2.04 0 0 1-1.02.61c-.518.005-6.54-1.742-8.861-2.565Z"/><path fill="#AD7751" d="M133.427 44.919s-.783 0-.674-.402c.108-.401 1.911-.586 2.774-.735.863-.148 1.132.314 2.221.804 1.088.49 1.67-.197 2.248.056.578.253-.562 1.445-1.204 1.473-.643.028-.775.321-1.498.145-1.827-.474-1.634-.904-3.867-1.341Z"/><path fill="#000" d="M133.925 44.786s1.522-.698 2.241-.217c1.088.723-.342.868-2.241.217ZM137.748 45.818s.991-.622 1.465-.498c.474.125-.289.827-1.465.498ZM134.977 34.042a4.997 4.997 0 0 0-1.811-.884 7.158 7.158 0 0 0-1.971-.236 7.392 7.392 0 0 0-1.871.252 23.928 23.928 0 0 0-2.04-.746c.301.245.606.473.924.694.317.221.63.434.947.647.035.02.073.03.113.032h.088c.598 0 1.205 0 1.819.032.233 0 .462.04.694.064a1.692 1.692 0 0 0-.895 1.728 1.683 1.683 0 0 0 1.329 1.421 1.688 1.688 0 0 0 1.646-2.72c.23.08.455.171.675.274.27.128.529.278.775.45.251.184.49.385.714.602a3.08 3.08 0 0 0-.441-.884 3.872 3.872 0 0 0-.695-.726ZM146.252 38.747a2.105 2.105 0 0 0-.177-.606 2.226 2.226 0 0 0-.514-.666 2.808 2.808 0 0 0-1.498-.63 4.094 4.094 0 0 0-1.521.096c-.49.112-.952.319-1.361.61.501.036.971.056 1.429.08l.482.04a1.487 1.487 0 0 0-.554.864 1.512 1.512 0 0 0 .835 1.725 1.515 1.515 0 0 0 2.133-1.097 1.51 1.51 0 0 0-.029-.685.184.184 0 0 0 .044.04c.147.16.281.33.401.51l.053.085a.16.16 0 0 0 .204.052c.298-.157.595-.321.884-.51-.293.02-.554.052-.811.092Z"/><path fill="#BF7900" d="m76.477 114.489-.065-.048-.883 2.26c3.481 1.032 7.3 2.1 11.062 3.124-1.333-2.618-2.337-5.28-2.41-7.48-.26-6.986 6.228-20.955 6.228-20.955-3.437 4.959-7.793 12.335-10.704 17.414-1.771 3.075-3.012 5.308-3.212 5.641l-.016.044ZM86.795 64.05a5.051 5.051 0 0 1 1.747.896c.134.096.262.2.381.314.117.112.253.208.366.329l.337.361c.052.064.112.12.165.185l.152.197c.209.255.4.523.574.803l.261.401.133.209.112.225.442.891.365.936c.123.31.228.628.314.951.092.321.196.643.285.968l.212.984c.069.333.165.654.205.991.093.67.213 1.337.29 2.008.076.67.128 1.349.208 2.028h.209c0-.683 0-1.37-.028-2.056a9.77 9.77 0 0 0-.08-1.024l-.1-1.028c-.025-.341-.11-.679-.162-1.02l-.188-1.016c-.08-.337-.177-.67-.27-1.004a7.892 7.892 0 0 0-.312-.991l-.37-.976c-.152-.313-.313-.622-.474-.935-.336-.62-.74-1.2-1.204-1.731l-.169-.205-.189-.18-.401-.366a4.137 4.137 0 0 0-.401-.329 3.618 3.618 0 0 0-.434-.301 4.599 4.599 0 0 0-1.972-.739l-.004.225ZM154.912 119.745c-1.236-9.48-4.155-28.46-8.291-34.362 2.084 7.762 3.57 16.298 2.775 20.389a37.818 37.818 0 0 1-2.129 6.826c-1.256 3.256-1.405 8.492-1.405 7.629 1.871-.105 5.545-.301 9.05-.482Z"/><path fill="#fff" d="M45.468 101.199s7.91-3.164 31.008 13.29l.025-.044 3.3-5.473-.104-.148c-1.109-1.518-10.781-14.105-27.97-15.037-2.521 2.967-4.685 5.549-6.26 7.412ZM146.019 122.853l.277 2.409h18.144l-1.265-5.85c-1.967 0-13.454.622-17.313.835.001.871.053 1.741.157 2.606ZM134.17 66.356a112.21 112.21 0 0 1-4.312-2.574c5.244 6.962 6.023 17.811-1.807 18.225-6.023.317-11.166-2.94-16.771-8.545-4.312-4.312-8.03-11.913-8.215-12.318-1.606.157-3.192.321-3.212.345-.924 2.164 16.06 28.484 30.74 23.806 9.636-3.068 5.934-14.214 3.979-18.707l-.402-.232Z"/></g><g class="avatar_two"><path fill="#9B7659" d="M195.799 144.86s-3.369 2.007-4.192 5.826c-.823 3.818-2.321 5.44-2.321 5.44s1.47-3.802 1.606-6.376c.137-2.574 3.485-6.292 3.485-6.292l1.422 1.402Z"/><path fill="#237574" d="M241.575 227.74h93.437c5.741 0 10.395-4.654 10.395-10.395V48.761c0-5.74-4.654-10.395-10.395-10.395h-93.437c-5.741 0-10.395 4.654-10.395 10.395v168.584c0 5.741 4.654 10.395 10.395 10.395Z"/><path fill="#4fd1c5" d="M337.61 57.14h-98.632a7.798 7.798 0 0 0-7.798 7.798v134.949a7.798 7.798 0 0 0 7.798 7.798h98.632a7.797 7.797 0 0 0 7.797-7.798V64.938a7.797 7.797 0 0 0-7.797-7.797Z"/><path fill="#000" d="m254.504 207.914 83.113-.225a7.8 7.8 0 0 0 7.798-7.798v-89.168c-3.57-2.59-21.28-2.104-29.198 1.204-11.708 4.903-23.838 51.33-36.39 56.112-19.943 7.585-25.323 39.875-25.323 39.875Z"/><path fill="#000" d="M332.346 200.666s-7.93.566-14.575-.895c0 0 8.584-4.533 14.575-5.368v6.263Z"/><path fill="#CE9D77" d="M322.203 101.319a4.75 4.75 0 0 0-2.08-3.849 4.754 4.754 0 0 0-4.344-.523l-.626 1.843-2.241 6.617-2.252-10.319a6.375 6.375 0 0 0-3.1-4.184 15.82 15.82 0 0 1-6.593-7.087l-.65-1.389-16.796-1.08a2.785 2.785 0 0 0-2.75 1.699l-2.272 5.344a6.291 6.291 0 0 0-.193.538c-.056.18-.125.401-.173.614h.45l.835-.04a1.417 1.417 0 0 1 1.265.683l.546.923a.718.718 0 0 1 .108.454.801.801 0 0 1-.743.77l-2.521.193-.153.044.02 2.719v.401a7.936 7.936 0 0 1-.16 1.285c0 .117-.048.229-.076.341l-.35 1.353a20.896 20.896 0 0 0-.55 3.18 20.723 20.723 0 0 0 .321 6.132l.884 4.368a31.46 31.46 0 0 0 1.124 4.088l1.526 4.352c.57 1.626 1.1 2.465 1.778 3.132a6.276 6.276 0 0 0 3.899 1.746l2.883.241h.165c.056 4.337.084 11.825-.37 13.339a13.318 13.318 0 0 0 1.562 11.081l26.263-21.517s-.474-1.204-2.052-6.388c-.875-2.867-.754-7.572-.473-11.198a7.184 7.184 0 0 0 7.628-6.569l.237-2.835.04-.489-.016-.013Zm-22.304-7.717-2.409-.445-7.227-1.337a2.145 2.145 0 0 1-1.606-1.37l-.354-.967a.581.581 0 0 1 .1-.559.577.577 0 0 1 .531-.2l8.669 1.63c.949.179 1.812.67 2.449 1.397l.562.639a.738.738 0 0 1-.715 1.212Z"/><path fill="#fff" d="M289.392 129.092v1.446c.004-.486 0-.968 0-1.446Z"/><path fill="#fff" d="M323.167 133.718s-6.424-4.911-7.275-7.866c0 0-2.233 3.433-14.832 10.468a10.56 10.56 0 0 0-3.69 3.449c-.161.252-.362.554-.582.887a1210.82 1210.82 0 0 1-5.983 8.881l-.201.298-.052.076c-.044.064-.084.128-.128.189-.029-.041-.057-.089-.089-.141-.032-.048-.06-.1-.096-.157a.326.326 0 0 0-.024-.04l-.089-.16c0-.024-.028-.053-.044-.081l-.084-.152-.048-.093-.089-.172-.048-.101c-.028-.064-.06-.124-.092-.192l-.056-.129c-.028-.06-.057-.124-.089-.189l-.084-.172a5.125 5.125 0 0 1-.084-.201c-.028-.072-.04-.108-.065-.161-.024-.052-.052-.136-.08-.208l-.064-.189c-.024-.072-.052-.137-.076-.209-.024-.072-.045-.144-.069-.217a4.13 4.13 0 0 1-.064-.208l-.072-.257c-.024-.089-.036-.125-.056-.185-.02-.06-.044-.185-.065-.273l-.048-.197c0-.088-.04-.181-.056-.273l-.048-.217-.048-.305-.036-.209c0-.1-.029-.208-.041-.313-.012-.104-.02-.144-.028-.217l-.277-.606c-.678-1.514-1.566-3.561-2.3-5.521-.92-2.453-1.607-4.774-1.358-5.737.306-1.205 2.578-2.558 4.819-3.634v-.759c-2.153.803-4.281 1.606-5.425 2.088-2.879 1.249-5.408 13.27-5.408 13.27l4.216-4.039 1.353 1.887c-2.152 4.557-3.325 11.178 4.557 11.467 5.882.221 10.327-3.112 13.065-6.023l3.072 2.719 18.361-15.876Z"/><path fill="#CCC" d="M288.994 139.251c.357-1.205.402-6.128.402-10.283-2.249 1.08-4.521 2.441-4.819 3.637-.473 1.847 2.466 8.645 3.939 11.877a13.143 13.143 0 0 1 .478-5.231Z"/><path fill="#B1B1B1" d="m281.462 138.187-2.907 5.384 4.216-4.039-1.309-1.345Z"/><path fill="#CCC" d="m298.908 144.35-7.408 5.521-.101.14c3.614-.193 8.384-2.152 10.44-3.067l-2.931-2.594Z"/><path fill="#000" d="M325.552 196.298a75.682 75.682 0 0 0-7.781 3.473c2.899.592 5.846.918 8.805.976l-1.024-4.449ZM239.134 172.251l-.45.43.036.068c.109-.137.249-.305.414-.498Z"/><path fill="#CE9D77" d="M290.423 150.099c1.679-2.473 5.541-8.174 6.947-10.33a10.572 10.572 0 0 1 3.69-3.45c11.852-6.62 14.53-10.037 14.807-10.439-.285-.887-.638-2.007-1.08-3.469-.875-2.867-.754-7.573-.473-11.198a7.184 7.184 0 0 0 7.628-6.569l.237-2.835.04-.49h-.024a4.75 4.75 0 0 0-2.08-3.849 4.754 4.754 0 0 0-4.344-.523l-.626 1.843-2.241 6.617-2.252-10.319a6.37 6.37 0 0 0-3.092-4.184 15.82 15.82 0 0 1-6.593-7.087l-.65-1.389-16.796-1.08a2.785 2.785 0 0 0-2.75 1.699l-2.272 5.344a6.291 6.291 0 0 0-.193.538c-.056.18-.125.401-.173.614h.45l.835-.04a1.417 1.417 0 0 1 1.265.683l.546.923a.718.718 0 0 1 .108.454.801.801 0 0 1-.743.77l-2.521.193-.153.044.02 2.719v.401a7.936 7.936 0 0 1-.16 1.285c0 .117-.048.229-.076.341l-.35 1.353a20.896 20.896 0 0 0-.55 3.18 20.723 20.723 0 0 0 .321 6.132l.884 4.368a31.46 31.46 0 0 0 1.124 4.088l1.526 4.352c.57 1.626 1.1 2.465 1.778 3.132a6.276 6.276 0 0 0 3.899 1.746l2.883.241h.165c.056 4.337.084 11.825-.37 13.339a13.38 13.38 0 0 0 1.409 10.852Zm-1.794-59.648-.354-.968a.581.581 0 0 1 .1-.559.577.577 0 0 1 .531-.2l8.668 1.63a4.32 4.32 0 0 1 2.45 1.397l.562.639a.735.735 0 0 1 .077.841.744.744 0 0 1-.764.363l-2.409-.445-7.227-1.337a2.133 2.133 0 0 1-1.634-1.361Z"/><path fill="#000" d="M300.024 91.751a4.324 4.324 0 0 0-2.45-1.397l-8.668-1.63a.573.573 0 0 0-.631.759l.354.968a2.139 2.139 0 0 0 1.606 1.369l7.227 1.337 2.409.445a.74.74 0 0 0 .687-1.204l-.534-.647Z"/><path fill="#000" d="M303.284 67.954c-17.667-2.104-25.625 8.833-26.135 21.91a43.575 43.575 0 0 0 .402 8.006l.148-.57a8.049 8.049 0 0 0 .237-1.626v-.401l-.02-2.719.153-.044 2.521-.193a.804.804 0 0 0 .743-.77.724.724 0 0 0-.108-.454l-.546-.924a1.415 1.415 0 0 0-1.265-.682l-.835.04h-.45c.048-.205.104-.401.173-.614.068-.213.12-.362.192-.538l2.273-5.344a2.787 2.787 0 0 1 2.75-1.699l16.796 1.08.65 1.39c1.402 2.999 3.709 5.483 6.597 7.102a6.372 6.372 0 0 1 3.116 4.204l2.252 10.319 2.241-6.617.626-1.843a4.758 4.758 0 0 1 6.424 4.373h.024l-.04.489-.237 2.835a7.375 7.375 0 0 1-.192 1.124 30.36 30.36 0 0 0 3.405-10.037c2.296-14.584-2.614-25.5-21.895-27.797ZM314.314 111.221a70.104 70.104 0 0 0-.173 2.987 23.79 23.79 0 0 0 4.698-4.228 7.163 7.163 0 0 1-4.525 1.241Z"/><path fill="#CE9D77" d="m325.544 196.254 2.686 11.643h9.175a8.17 8.17 0 0 0 8.002-8.03l-.105-7.251c-3.436-.217-10.744-.209-19.758 3.638ZM244.121 174.62l-.096.104-.073.077-4.697 5.007-32.636-18.747c-1.377-1.177-5.047-4.646-3.906-7.408.622-1.506.096-4.762-.358-7.565-.453-2.802-3.16-6.022-3.031-9.022a3.437 3.437 0 0 0-.068-.803l-.566-3.14a.902.902 0 0 0-.723-.722c-.803-.149-2.233.044-2.975 2.75-1.088 3.947 1.341 9.44.827 9.693-.514.253-4.256-5.336-4.987-6.276 0 0-5.754-9.428-6.954-11.419-1.201-1.992-3.305-1.056-3.249.494.045 1.14 3.614 8.689 5.501 12.631-.176.109-.357.225-.538.346-2.537-3.212-8.753-10.994-9.869-11.885-1.413-1.128-2.172-1.421-3.373-.574-1.2.847 0 2.064 0 2.064l9.524 13.498-.181.197c-2.095-2.088-5.725-5.733-6.665-6.858-1.345-1.606-3.774-4.392-4.561-4.601-1.783-.47-3.015 1.02-2.052 2.485.783 1.205 7.774 9.532 10.396 12.652-2.145-1.377-5.22-3.381-5.814-3.867-.912-.758-3.534-3.573-4.903-2.533-1.369 1.04.169 2.646 1.132 4.107.964 1.462 8.709 8.645 8.709 8.645a26.592 26.592 0 0 1 2.811 3.561c2.702 4.212 8.102 6.136 10.098 6.726l30.868 32.703 4.77 5.22a16.985 16.985 0 0 0 11.644 5.493h8.308v-.045h1.096l15.992-18.365c-3.019-2.831-12.045-10.933-19.401-14.623Z"/><path fill="#000" d="m242.013 176.848 1.919-2.047.072-.077.097-.104c-1.948-.972-3.782-1.642-5.356-1.823.606 1.261 1.887 2.71 3.268 4.051Z"/><path fill="#9B7659" d="m300.193 122.6-8.292 2.955a6.468 6.468 0 0 1-2.606.357v9.235c13.226-4.67 17.952-13.166 19.634-18.47a21.271 21.271 0 0 1-8.736 5.923ZM319.606 102.612c.176-5.476-4.305-2.26-4.305-2.26l3.373 1.77c-.177 4.919-3.971 6.625-3.971 6.625 4.686-.124 4.903-6.135 4.903-6.135ZM325.544 196.254s6.798 5.332 19.863 3.637l-.105-7.275s-8.945-1.02-19.758 3.638ZM240.583 178.487l4.598 6.05-5.866-4.786 1.268-1.264Z"/><path fill="#9B7659" d="m244.964 175.066-.96-.342-.14-.052.068.129 13.439 18.558-6.497 7.628a14.223 14.223 0 0 1-8.748 4.861 14.236 14.236 0 0 1-9.786-2.102l-10.608-6.826 4.77 5.22a16.98 16.98 0 0 0 11.644 5.492h8.308v-.044h1.096l15.992-18.365c-2.923-2.702-11.391-10.295-18.578-14.157Z"/><path fill="#000" d="M291.733 112.988s-1.924 2.208-4.782 2.557c-2.859.349-3.554-.53-4.208-1.241-.655-.71-.751-2.678-.683-2.409 3.248.108 6.482.473 9.673 1.093Z"/><path fill="#7C5E47" d="M291.732 112.988s-1.839 3.613-5.051 4.015c-3.212.401-4.336-1.253-4.553-2.156a24.377 24.377 0 0 1-.341-2.988l.494.402a3.096 3.096 0 0 0 2.626 2.947c2.597.546 5.649-2.305 6.825-2.22Z"/><path fill="#fff" d="M290.849 112.927a7.756 7.756 0 0 1-3.69 1.137c-2.923.084-3.505-.273-4.047-.603-.542-.329-.924-1.606-.924-1.606s7.248.245 8.661 1.072Z"/><path fill="#7C5E47" d="M291.925 113.02s-2.875-1.574-5.545-1.502c-2.67.072-3.666-.402-4.184-.402a3.342 3.342 0 0 0-1.264.43 7.276 7.276 0 0 0 3.268 1.261c1.763.156 5.432-.129 7.725.213Z"/><path fill="#000" d="M288.781 108.599s.876.245.884-.257c.008-.502-1.956-1.253-2.879-1.694-.924-.442-1.369 0-2.742.192-1.374.193-1.815-.751-2.542-.646-.727.104.177 1.795.899 2.032.723.236.771.61 1.639.634 2.18.068 2.095-.478 4.741-.261Z" opacity=".4"/><path fill="#000" d="M288.287 108.29s-1.493-1.261-2.449-.948c-1.469.47.088 1.08 2.449.948ZM283.646 108.246s-.915-1.008-1.486-1.02c-.57-.012.105 1.028 1.486 1.02ZM297.065 98.131c-.057-.104-1.342-2.493-3.425-2.81-1.141-.16-2.265.317-3.337 1.43a.57.57 0 0 0 0 .802.562.562 0 0 0 .803-.016l.048-.044a1.583 1.583 0 0 0-.044.193 1.57 1.57 0 0 0 .691 1.496 1.567 1.567 0 0 0 2.141-2.212 1.566 1.566 0 0 0-.668-.537h.189c1.514.209 2.57 2.176 2.582 2.192a.563.563 0 0 0 .765.24.565.565 0 0 0 .238-.765l.017.031ZM279.611 95.349a2.732 2.732 0 0 0-1.695.325 7.935 7.935 0 0 1-.16 1.285c.113-.1.232-.192.357-.277a1.317 1.317 0 0 0-.122 1.517 1.315 1.315 0 0 0 1.388.625 1.322 1.322 0 0 0 .376-2.46c1.129.354 1.892 1.771 1.904 1.787a.475.475 0 0 0 .878-.085.466.466 0 0 0-.035-.364c-.044-.084-1.129-2.104-2.891-2.353Z"/><path fill="#2EB67D" d="M329.816 136.93c-1.345-.362-4.26-1.807-6.766-3.112l-18.232 15.764-3.072-2.719c-2.738 2.911-7.183 6.244-13.065 6.023-7.882-.289-6.709-6.91-4.557-11.467l-1.353-1.887-4.216 4.039s.734-3.489 1.863-6.906c-.779.349-1.851.839-3.084 1.409-4.65 2.152-11.491 5.469-12.704 6.874-2.132 1.907-15.225 15.9-22.059 23.436-1.903 2.104-3.321 3.706-3.875 4.393 8.858.952 25.902 17.434 25.902 17.434l-1.851 17.578 65.487.088-2.678-11.644c9.01-3.842 16.317-3.854 19.771-3.637v-47.419s-4.441-5.288-15.511-8.247Zm-4.264 59.368 1.024 4.449a48.784 48.784 0 0 1-8.805-.976 75.682 75.682 0 0 1 7.781-3.473Z"/><path fill="#23895E" d="M254.821 181.647a124.611 124.611 0 0 1 9.809 8.544l1.426-20.518-11.235 11.974ZM318.24 199.871l-.449.024v-.12h-.02.02c0-1.831-.044-22.288-.952-28.03l-7.175 36.136 18.562.029-1.65-7.159a50.296 50.296 0 0 1-8.336-.88Z"/><path fill="#B1B1B1" d="M217.356 133.063s-16.711 7.119-28.07 15.362c-11.359 8.243-15.065 18.125-15.065 18.125s-16.863-22.329-26.664-23.858c0 0 19.931-23.047 39.549-30.323 0-.012 25.697 12.584 30.25 20.694Z"/><path fill="#F4EDE4" d="M218.424 128.807s-23.24 12.343-41.135 36.072c0 0-17.081-20.73-29.74-25.295 0 0 19.252-23.906 41.757-32.924l29.118 22.147Z"/><path fill="#B1B1B1" d="M194.072 114.449a.498.498 0 0 0 .369-.173.478.478 0 0 0-.068-.67 34.025 34.025 0 0 0-6.063-4.063.47.47 0 0 0-.336.013.468.468 0 0 0-.269.569.474.474 0 0 0 .204.269 33.663 33.663 0 0 1 5.862 3.947.478.478 0 0 0 .301.108ZM212.739 129.598a.469.469 0 0 0 .349-.152.476.476 0 0 0-.032-.671c-.085-.076-8.637-7.878-16.462-13.591a.479.479 0 0 0-.745.272.48.48 0 0 0 .183.495c7.777 5.681 16.293 13.446 16.377 13.527a.492.492 0 0 0 .33.12ZM163.015 143.727a.468.468 0 0 0 .457-.345.481.481 0 0 0-.043-.361.482.482 0 0 0-.121-.141c-3.569-2.79-6.601-4.762-9.002-5.858a.486.486 0 0 0-.364-.015.48.48 0 0 0-.268.246.477.477 0 0 0 .231.632c2.332 1.068 5.3 3 8.809 5.742a.475.475 0 0 0 .301.1ZM183.191 125.884a.455.455 0 0 0 .381-.193.47.47 0 0 0-.08-.658c-4.015-2.987-7.227-5.019-9.572-6.047a.476.476 0 0 0-.377.871c2.276.996 5.436 2.996 9.383 5.939.078.054.17.085.265.088ZM198.649 138.733a.494.494 0 0 0 .354-.153.468.468 0 0 0 .123-.342.473.473 0 0 0-.156-.329c-.056-.052-5.729-5.219-12.021-10.21a.476.476 0 0 0-.637.103.48.48 0 0 0 .047.644c6.268 4.958 11.917 10.11 11.973 10.162a.46.46 0 0 0 .317.125ZM180.91 118.862a.473.473 0 0 0 .458-.585.48.48 0 0 0-.213-.295 29.682 29.682 0 0 0-3.457-1.847.478.478 0 0 0-.626.245.474.474 0 0 0 .245.627 27.99 27.99 0 0 1 3.344 1.786.46.46 0 0 0 .249.069ZM192.35 127.221a.475.475 0 0 0 .46-.603.477.477 0 0 0-.159-.24c-3.783-3.068-7.099-5.541-9.857-7.36a.482.482 0 0 0-.659.137.47.47 0 0 0 .153.658c2.734 1.799 6.022 4.256 9.781 7.304a.457.457 0 0 0 .281.104ZM202.448 135.874a.465.465 0 0 0 .349-.157.47.47 0 0 0-.032-.646c-.036-.028-3.529-3.212-8.03-6.974a.471.471 0 0 0-.649.074.474.474 0 0 0 .042.652c4.497 3.742 7.978 6.918 8.031 6.95.082.065.184.1.289.101ZM202.034 125.571a.462.462 0 0 0 .362-.169.478.478 0 0 0-.057-.67c-5.645-4.758-13.402-10.881-18.309-13.025a.486.486 0 0 0-.366-.013.477.477 0 0 0-.17.775.468.468 0 0 0 .155.105c4.818 2.1 12.483 8.167 18.068 12.885a.46.46 0 0 0 .317.112ZM208.788 131.457a.47.47 0 0 0 .447-.302.477.477 0 0 0-.126-.525c0-.02-2.108-1.923-5.116-4.505a.48.48 0 0 0-.761.214.478.478 0 0 0 .028.363.465.465 0 0 0 .115.146c2.995 2.569 5.071 4.465 5.095 4.485.087.079.2.123.318.124Z"/></g></svg>